<svg width="24" height="24" viewBox="0 0 24 24" fill="none" xmlns="http://www.w3.org/2000/svg">
<path d="M4 22C4 19.9793 4.84285 18.0414 6.34315 16.6125C7.84344 15.1837 9.87827 14.381 12 14.381C14.1217 14.381 16.1566 15.1837 17.6569 16.6125C19.1571 18.0414 20 19.9793 20 22H18C18 20.4845 17.3679 19.031 16.2426 17.9594C15.1174 16.8878 13.5913 16.2857 12 16.2857C10.4087 16.2857 8.88258 16.8878 7.75736 17.9594C6.63214 19.031 6 20.4845 6 22H4ZM12 13.4286C8.685 13.4286 6 10.8714 6 7.71429C6 4.55714 8.685 2 12 2C15.315 2 18 4.55714 18 7.71429C18 10.8714 15.315 13.4286 12 13.4286ZM12 11.5238C14.21 11.5238 16 9.81905 16 7.71429C16 5.60952 14.21 3.90476 12 3.90476C9.79 3.90476 8 5.60952 8 7.71429C8 9.81905 9.79 11.5238 12 11.5238Z" fill="#FEFEFE"/>
</svg>
