<svg width="24" height="24" viewBox="0 0 24 24" fill="none" xmlns="http://www.w3.org/2000/svg">
<path d="M6.73735 11.4747C5.48093 11.4747 4.27596 10.9756 3.38754 10.0872C2.49911 9.19874 2 7.99378 2 6.73735C2 5.48093 2.49911 4.27596 3.38754 3.38754C4.27596 2.49911 5.48093 2 6.73735 2C7.99377 2 9.19874 2.49911 10.0872 3.38754C10.9756 4.27596 11.4747 5.48093 11.4747 6.73735C11.4747 7.99378 10.9756 9.19874 10.0872 10.0872C9.19874 10.9756 7.99377 11.4747 6.73735 11.4747ZM6.73735 21.9998C5.48121 21.9998 4.27651 21.5008 3.38828 20.6126C2.50005 19.7244 2.00105 18.5197 2.00105 17.2635C2.00105 16.0074 2.50005 14.8027 3.38828 13.9144C4.27651 13.0262 5.48121 12.5272 6.73735 12.5272C7.9935 12.5272 9.19819 13.0262 10.0864 13.9144C10.9746 14.8027 11.4736 16.0074 11.4736 17.2635C11.4736 18.5197 10.9746 19.7244 10.0864 20.6126C9.19819 21.5008 7.9935 21.9998 6.73735 21.9998ZM17.2625 11.4747C16.1676 11.4732 15.107 11.0925 14.2611 10.3973C13.4152 9.70214 12.8363 8.73543 12.6226 7.66157C12.409 6.58772 12.574 5.47303 13.0895 4.50707C13.6049 3.5411 14.4391 2.78351 15.45 2.36312C16.0971 2.0949 16.7956 1.97354 17.4952 2.00776C18.1948 2.04199 18.878 2.23096 19.4958 2.56106C20.1136 2.89116 20.6505 3.35417 21.0677 3.91674C21.485 4.4793 21.7723 5.12742 21.909 5.81439C22.0456 6.50136 22.0282 7.2101 21.858 7.88953C21.6878 8.56896 21.3689 9.20217 20.9245 9.74356C20.4801 10.2849 19.9211 10.721 19.2879 11.0204C18.6546 11.3197 17.9629 11.4749 17.2625 11.4747ZM17.2625 21.9998C16.0063 21.9998 14.8016 21.5008 13.9134 20.6126C13.0252 19.7244 12.5262 18.5197 12.5262 17.2635C12.5262 16.0074 13.0252 14.8027 13.9134 13.9144C14.8016 13.0262 16.0063 12.5272 17.2625 12.5272C18.5186 12.5272 19.7233 13.0262 20.6115 13.9144C21.4998 14.8027 21.9988 16.0074 21.9988 17.2635C21.9988 18.5197 21.4998 19.7244 20.6115 20.6126C19.7233 21.5008 18.5186 21.9998 17.2625 21.9998Z" fill="#FEFEFE"/>
</svg>
