<svg width="233" height="49" viewBox="0 0 233 49" fill="none" xmlns="http://www.w3.org/2000/svg">
<path fill-rule="evenodd" clip-rule="evenodd" d="M66.5 48.5C79.7548 48.5 90.5 37.7548 90.5 24.5C90.5 11.2452 79.7548 0.5 66.5 0.5C53.2452 0.5 42.5 11.2452 42.5 24.5C42.5 37.7548 53.2452 48.5 66.5 48.5ZM61.4119 44.1704C65.5255 44.9228 69.7741 40.3775 71.7686 33.7186C68.5225 34.3233 65.3238 34.4001 62.3394 34.1146C62.7412 35.0978 63.2066 36.0736 63.7401 37.0363C63.9093 37.3186 64.0062 37.6515 64.0062 38.0084C64.0062 39.0265 63.2106 39.852 62.2296 39.852C61.5053 39.852 60.882 39.4013 60.6055 38.756C59.68 37.0301 58.9532 35.2734 58.3988 33.5122C52.5938 32.2854 48.0792 29.7851 46.4166 27.563C47.6385 35.6423 53.6194 42.1605 61.4119 44.1704ZM69.5626 44.5835C77.6525 43.3601 84.1772 37.3653 86.1781 29.558C86.8538 25.4742 82.3336 21.2733 75.7292 19.29C76.3361 22.5819 76.4009 25.8239 76.0965 28.8419C77.0631 28.4447 78.0226 27.9859 78.9693 27.4613C79.2516 27.2921 79.5844 27.1952 79.9413 27.1952C80.9595 27.1952 81.7849 27.9908 81.7849 28.9717C81.7849 29.6961 81.3342 30.3193 80.689 30.5959C78.9713 31.5169 77.2232 32.2412 75.4705 32.7946C74.2295 38.5064 71.7601 42.9394 69.5626 44.5835ZM72.6011 30.0118C68.6777 31.0401 64.7482 31.1545 61.1797 30.6301C60.1355 26.6234 60.0437 22.6116 60.6109 18.9855C64.5396 17.9897 68.4675 17.9053 72.0263 18.4557C73.0592 22.4305 73.1554 26.4097 72.6011 30.0118ZM70.8648 14.9599C67.8889 14.6572 64.6946 14.7133 61.4488 15.2942C63.4731 8.58883 67.7843 4.04297 71.9303 4.92458L71.9149 4.91687C79.5726 7.0296 85.417 13.5135 86.5952 21.5156C84.9684 19.3152 80.5341 16.8358 74.8128 15.5884C74.2571 13.816 73.5269 12.0479 72.5956 10.311C72.3191 9.66576 71.6958 9.21508 70.9715 9.21508C69.9905 9.21508 69.1949 10.0405 69.1949 11.0587C69.1949 11.4156 69.2918 11.7484 69.461 12.0307C69.9958 12.9958 70.4623 13.9742 70.8648 14.9599ZM57.4814 29.8279C50.7132 27.859 46.0691 23.5661 46.8298 19.4112C48.8702 11.5013 55.556 5.45815 63.8043 4.36445C61.5771 5.89734 59.0274 10.3735 57.7489 16.1887C55.9205 16.7505 54.0958 17.4972 52.3042 18.4578C51.659 18.7344 51.2083 19.3576 51.2083 20.0819C51.2083 21.0629 52.0337 21.8585 53.0519 21.8585C53.4088 21.8585 53.7416 21.7616 54.0239 21.5924C55.0419 21.0283 56.0746 20.5403 57.115 20.1231C56.7972 23.1856 56.8588 26.4814 57.4814 29.8279Z" fill="#FEFEFE"/>
<path d="M111.234 40.704C107.743 40.704 105.015 39.78 103.05 37.932C101.085 36.084 100.102 33.5027 100.102 30.188H104.106C104.106 32.3293 104.737 34.0307 105.998 35.292C107.289 36.5533 109.019 37.184 111.19 37.184C113.126 37.184 114.622 36.744 115.678 35.864C116.734 34.9547 117.262 33.6933 117.262 32.08C117.262 30.7307 116.881 29.6453 116.118 28.824C115.385 28.0027 114.123 27.284 112.334 26.668L107.23 24.864C103.094 23.544 101.026 20.8453 101.026 16.768C101.026 14.304 101.921 12.3093 103.71 10.784C105.499 9.25867 107.831 8.496 110.706 8.496C113.727 8.496 116.147 9.34667 117.966 11.048C119.785 12.7493 120.694 15.0373 120.694 17.912H116.69C116.69 16.0053 116.162 14.5387 115.106 13.512C114.05 12.456 112.539 11.928 110.574 11.928C108.873 11.928 107.523 12.3533 106.526 13.204C105.558 14.0253 105.074 15.14 105.074 16.548C105.074 17.8387 105.499 18.9093 106.35 19.76C107.201 20.6107 108.579 21.3587 110.486 22.004L115.238 23.676C119.286 25.1133 121.31 27.8853 121.31 31.992C121.31 34.6027 120.386 36.7147 118.538 38.328C116.719 39.912 114.285 40.704 111.234 40.704ZM133.57 12.368C133.101 12.368 132.676 12.412 132.294 12.5C131.942 12.5587 131.561 12.7053 131.15 12.94C130.769 13.1747 130.461 13.556 130.226 14.084C130.021 14.612 129.918 15.2867 129.918 16.108V19.716H135.638V22.928H129.918V40H126.09V22.928H121.778V19.716H126.09V16.196C126.09 14.9933 126.237 13.9373 126.53 13.028C126.853 12.1187 127.249 11.4147 127.718 10.916C128.188 10.388 128.73 9.97733 129.346 9.684C129.962 9.36133 130.52 9.156 131.018 9.068C131.517 8.98 132.03 8.936 132.558 8.936C133.878 8.936 134.905 9.08267 135.638 9.376V12.676C134.876 12.4707 134.186 12.368 133.57 12.368ZM154.946 28.692C154.946 29.2493 154.902 30.012 154.814 30.98H139.106C139.136 32.916 139.722 34.4413 140.866 35.556C142.01 36.6413 143.55 37.184 145.486 37.184C148.185 37.184 149.974 36.1867 150.854 34.192H154.682C154.33 36.0693 153.304 37.5947 151.602 38.768C149.901 39.9413 147.862 40.528 145.486 40.528C142.377 40.528 139.898 39.5747 138.05 37.668C136.232 35.732 135.322 33.1213 135.322 29.836C135.322 26.6093 136.232 24.028 138.05 22.092C139.869 20.156 142.289 19.188 145.31 19.188C148.185 19.188 150.502 20.068 152.262 21.828C154.052 23.588 154.946 25.876 154.946 28.692ZM139.106 28.032H151.162C151.162 26.2427 150.634 24.8347 149.578 23.808C148.552 22.7813 147.114 22.268 145.266 22.268C143.448 22.268 141.981 22.796 140.866 23.852C139.781 24.908 139.194 26.3013 139.106 28.032ZM157.696 40V19.716H161.524V24.336C161.905 22.7227 162.653 21.5053 163.768 20.684C164.882 19.8333 166.114 19.408 167.464 19.408C168.256 19.408 168.872 19.4667 169.312 19.584V23.104C168.872 23.016 168.241 22.972 167.42 22.972C165.513 22.972 164.046 23.7347 163.02 25.26C162.022 26.7853 161.524 28.736 161.524 31.112V40H157.696ZM188.789 28.692C188.789 29.2493 188.745 30.012 188.657 30.98H172.949C172.978 32.916 173.565 34.4413 174.709 35.556C175.853 36.6413 177.393 37.184 179.329 37.184C182.027 37.184 183.817 36.1867 184.697 34.192H188.525C188.173 36.0693 187.146 37.5947 185.445 38.768C183.743 39.9413 181.705 40.528 179.329 40.528C176.219 40.528 173.741 39.5747 171.893 37.668C170.074 35.732 169.165 33.1213 169.165 29.836C169.165 26.6093 170.074 24.028 171.893 22.092C173.711 20.156 176.131 19.188 179.153 19.188C182.027 19.188 184.345 20.068 186.105 21.828C187.894 23.588 188.789 25.876 188.789 28.692ZM172.949 28.032H185.005C185.005 26.2427 184.477 24.8347 183.421 23.808C182.394 22.7813 180.957 22.268 179.109 22.268C177.29 22.268 175.823 22.796 174.709 23.852C173.623 24.908 173.037 26.3013 172.949 28.032Z" fill="#FEFEFE"/>
</svg>
