<svg width="24" height="24" viewBox="0 0 24 24" fill="none" xmlns="http://www.w3.org/2000/svg">
<path d="M20.4615 20.4615H4.82051C4.3959 20.4615 4.05128 20.8062 4.05128 21.2308C4.05128 21.6554 4.3959 22 4.82051 22H20.9744C21.5179 22 22 21.5179 22 20.9744V4.82051C22 4.3959 21.6554 4.05128 21.2308 4.05128C20.8062 4.05128 20.4615 4.3959 20.4615 4.82051V20.4615ZM19.4359 3.02564C19.4359 2.53538 19.0472 2 18.4103 2H3.02564C2.38974 2 2 2.53231 2 3.02564V18.4103C2 19.0472 2.53333 19.4359 3.02564 19.4359H18.4103C18.9005 19.4359 19.4359 19.0472 19.4359 18.4103V3.02564ZM3.53846 3.53846H17.8974V17.8974H3.53846V3.53846ZM9.94872 9.94872H6.87179C6.44718 9.94872 6.10256 10.2933 6.10256 10.7179C6.10256 11.1426 6.44718 11.4872 6.87179 11.4872H9.94872V14.5641C9.94872 14.9887 10.2933 15.3333 10.7179 15.3333C11.1426 15.3333 11.4872 14.9887 11.4872 14.5641V11.4872H14.5641C14.9887 11.4872 15.3333 11.1426 15.3333 10.7179C15.3333 10.2933 14.9887 9.94872 14.5641 9.94872H11.4872V6.87179C11.4872 6.44718 11.1426 6.10256 10.7179 6.10256C10.2933 6.10256 9.94872 6.44718 9.94872 6.87179V9.94872Z" fill="#FEFEFE"/>
</svg>
